<?xml version="1.0" encoding="UTF-8"?>
<!DOCTYPE svg PUBLIC "-//W3C//DTD SVG 1.1//EN" "http://www.w3.org/Graphics/SVG/1.1/DTD/svg11.dtd">
<svg xmlns="http://www.w3.org/2000/svg" version="1.1" width="512px" height="512px" style="shape-rendering:geometricPrecision; text-rendering:geometricPrecision; image-rendering:optimizeQuality; fill-rule:evenodd; clip-rule:evenodd" xmlns:xlink="http://www.w3.org/1999/xlink">
<g><path style="opacity:0.996" fill="#c7b000" d="M 122.5,60.5 C 122.168,101.003 122.501,141.337 123.5,181.5C 122.833,182.5 122.167,183.5 121.5,184.5C 120.833,184.5 120.167,184.5 119.5,184.5C 119.611,183.883 119.944,183.383 120.5,183C 118.569,182.098 116.903,180.931 115.5,179.5C 117.117,180.038 118.784,180.371 120.5,180.5C 120.833,141.161 120.5,101.828 119.5,62.5C 84.5753,82.1776 50.2419,102.178 16.5,122.5C 16.1667,122.5 15.8333,122.5 15.5,122.5C 15.3334,100.164 15.5,77.8308 16,55.5C 17.1748,49.9831 19.5082,44.9831 23,40.5C 26.0712,37.0551 29.5712,34.0551 33.5,31.5C 44.8722,27.2034 56.5389,26.3701 68.5,29C 86.8411,39.0441 104.841,49.5441 122.5,60.5 Z"/></g>
<g><path style="opacity:0.966" fill="#8c7c00" d="M 328.5,91.5 C 315.241,78.576 301.907,65.576 288.5,52.5C 289.665,51.4164 290.998,50.5831 292.5,50C 315.898,43.2245 339.231,36.3912 362.5,29.5C 358.67,47.4872 354.837,65.4872 351,83.5C 348.435,90.2063 346.935,97.2063 346.5,104.5C 345.127,104.657 343.793,104.49 342.5,104C 338.234,99.2259 333.568,95.0592 328.5,91.5 Z"/></g>
<g><path style="opacity:0.985" fill="#d0b800" d="M 122.5,60.5 C 157.919,80.5373 193.252,100.537 228.5,120.5C 199.742,137.406 171.075,154.572 142.5,172C 136.047,174.959 129.714,178.126 123.5,181.5C 122.501,141.337 122.168,101.003 122.5,60.5 Z"/></g>
<g><path style="opacity:1" fill="#bfa900" d="M 115.5,179.5 C 82.3931,160.777 49.3931,141.777 16.5,122.5C 50.2419,102.178 84.5753,82.1776 119.5,62.5C 120.5,101.828 120.833,141.161 120.5,180.5C 118.784,180.371 117.117,180.038 115.5,179.5 Z"/></g>
<g><path style="opacity:0.961" fill="#8c7c00" d="M 375.5,86.5 C 379.471,82.5634 382.971,78.23 386,73.5C 386.965,71.7397 388.132,71.4063 389.5,72.5C 399.631,95.4342 409.298,118.434 418.5,141.5C 418.167,142.167 417.833,142.833 417.5,143.5C 400.321,140.286 382.988,138.119 365.5,137C 357.913,135.335 350.246,133.835 342.5,132.5C 352.338,117.526 363.172,103.193 375,89.5C 375.483,88.552 375.649,87.552 375.5,86.5 Z"/></g>
<g><path style="opacity:0.004" fill="#5c5300" d="M 375.5,86.5 C 374.833,85.1667 374.833,85.1667 375.5,86.5 Z"/></g>
<g><path style="opacity:0.004" fill="#131200" d="M 328.5,91.5 C 327.833,92.1667 327.833,92.1667 328.5,91.5 Z"/></g>
<g><path style="opacity:0.974" fill="#8c7c00" d="M 335.5,171.5 C 306.951,187.504 278.451,203.837 250,220.5C 248.506,178.978 248.006,137.311 248.5,95.5C 250.937,95.7563 253.271,96.4229 255.5,97.5C 288.828,117.989 322.495,137.655 356.5,156.5C 357.59,157.391 357.59,158.391 356.5,159.5C 349.037,163.565 342.037,167.565 335.5,171.5 Z"/></g>
<g><path style="opacity:0.998" fill="#d5bd00" d="M 15.5,122.5 C 15.8333,122.5 16.1667,122.5 16.5,122.5C 49.3931,141.777 82.3931,160.777 115.5,179.5C 116.903,180.931 118.569,182.098 120.5,183C 119.944,183.383 119.611,183.883 119.5,184.5C 84.9984,203.916 50.6651,223.583 16.5,243.5C 16.1667,243.5 15.8333,243.5 15.5,243.5C 15.5,203.167 15.5,162.833 15.5,122.5 Z"/></g>
<g><path style="opacity:0.974" fill="#baa500" d="M 228.5,120.5 C 229.404,121.209 229.737,122.209 229.5,123.5C 228.501,163.663 228.168,203.997 228.5,244.5C 227.167,244.5 225.833,244.5 224.5,244.5C 190.948,224.38 156.948,204.713 122.5,185.5C 122.5,184.833 122.167,184.5 121.5,184.5C 122.167,183.5 122.833,182.5 123.5,181.5C 129.714,178.126 136.047,174.959 142.5,172C 171.075,154.572 199.742,137.406 228.5,120.5 Z"/></g>
<g><path style="opacity:0.979" fill="#c7b000" d="M 335.5,171.5 C 359.192,176.688 382.859,181.854 406.5,187C 406.957,187.414 407.291,187.914 407.5,188.5C 390.833,206.167 374.167,223.833 357.5,241.5C 349.543,218.3 342.21,194.966 335.5,171.5 Z"/></g>
<g><path style="opacity:0.984" fill="#b8a300" d="M 119.5,184.5 C 120.167,184.5 120.833,184.5 121.5,184.5C 122.167,184.5 122.5,184.833 122.5,185.5C 122.5,224.833 122.5,264.167 122.5,303.5C 122.5,304.5 122.5,305.5 122.5,306.5C 87.4426,286.649 52.4426,266.482 17.5,246C 16.7476,245.329 16.4142,244.496 16.5,243.5C 50.6651,223.583 84.9984,203.916 119.5,184.5 Z"/></g>
<g><path style="opacity:0.994" fill="#c7b000" d="M 229.5,123.5 C 229.5,163.167 229.5,202.833 229.5,242.5C 234.007,240.203 238.674,238.036 243.5,236C 271.119,219.743 298.785,203.41 326.5,187C 329.561,184.965 332.895,183.799 336.5,183.5C 336.5,219.833 336.5,256.167 336.5,292.5C 336.5,293.5 336.5,294.5 336.5,295.5C 336.5,299.5 336.5,303.5 336.5,307.5C 332.659,305.537 328.659,303.703 324.5,302C 292.962,283.417 261.296,264.917 229.5,246.5C 229.672,245.508 229.338,244.842 228.5,244.5C 228.168,203.997 228.501,163.663 229.5,123.5 Z"/></g>
<g><path style="opacity:0.991" fill="#e8ce00" d="M 411.5,199.5 C 419.079,202.623 426.412,206.29 433.5,210.5C 444.291,216.789 454.957,223.289 465.5,230C 468.309,231.741 471.309,232.908 474.5,233.5C 474.762,234.978 474.429,236.311 473.5,237.5C 454.624,248.875 435.624,260.042 416.5,271C 414.866,271.494 413.199,271.66 411.5,271.5C 411.5,247.5 411.5,223.5 411.5,199.5 Z"/></g>
<g><path style="opacity:0.982" fill="#e8ce00" d="M 336.5,295.5 C 336.5,294.5 336.5,293.5 336.5,292.5C 340.506,288.491 344.173,284.157 347.5,279.5C 348.721,278.972 349.887,278.305 351,277.5C 364.313,260.857 378.313,244.857 393,229.5C 394.667,232.833 396.333,236.167 398,239.5C 405.089,263.936 413.256,287.936 422.5,311.5C 418.52,312.344 414.52,312.177 410.5,311C 385.768,305.831 361.102,300.664 336.5,295.5 Z"/></g>
<g><path style="opacity:0.998" fill="#d0b800" d="M 15.5,243.5 C 15.8333,243.5 16.1667,243.5 16.5,243.5C 16.4142,244.496 16.7476,245.329 17.5,246C 52.4426,266.482 87.4426,286.649 122.5,306.5C 122.5,306.833 122.5,307.167 122.5,307.5C 122.5,348.167 122.5,388.833 122.5,429.5C 121.128,428.488 119.795,427.488 118.5,426.5C 119.833,407.011 120.5,387.178 120.5,367C 120.167,347.167 119.833,327.333 119.5,307.5C 96.803,319.547 74.4697,332.047 52.5,345C 40.2504,352.281 28.2504,359.781 16.5,367.5C 16.1667,367.5 15.8333,367.5 15.5,367.5C 15.5,326.167 15.5,284.833 15.5,243.5 Z"/></g>
<g><path style="opacity:0.974" fill="#968500" d="M 224.5,244.5 C 225.833,244.5 227.167,244.5 228.5,244.5C 229.338,244.842 229.672,245.508 229.5,246.5C 229.5,263.5 229.5,280.5 229.5,297.5C 229.5,302.167 229.5,306.833 229.5,311.5C 228.167,312.167 228.167,312.833 229.5,313.5C 229.5,314.833 229.5,316.167 229.5,317.5C 228.994,333.722 227.994,350.055 226.5,366.5C 203.139,353.491 180.139,339.991 157.5,326C 145.925,319.574 134.258,313.408 122.5,307.5C 122.5,307.167 122.5,306.833 122.5,306.5C 122.5,305.5 122.5,304.5 122.5,303.5C 157.117,284.553 191.117,264.887 224.5,244.5 Z"/></g>
<g><path style="opacity:0.965" fill="#c2ac00" d="M 226.5,369.5 C 226.811,368.522 227.478,367.855 228.5,367.5C 229.499,350.847 229.833,334.18 229.5,317.5C 229.5,316.167 229.5,314.833 229.5,313.5C 229.5,312.833 229.5,312.167 229.5,311.5C 229.5,306.833 229.5,302.167 229.5,297.5C 230.07,283.285 230.903,268.952 232,254.5C 247.573,263.369 262.74,272.869 277.5,283C 296.947,294.857 316.28,306.69 335.5,318.5C 336.415,319.328 337.081,320.328 337.5,321.5C 302.339,340.582 267.006,359.415 231.5,378C 229.866,378.494 228.199,378.66 226.5,378.5C 226.5,375.5 226.5,372.5 226.5,369.5 Z"/></g>
<g><path style="opacity:0.981" fill="#e8ce00" d="M 441.5,298.5 C 439.231,295.062 436.398,292.062 433,289.5C 432.51,288.207 432.343,286.873 432.5,285.5C 437.19,284.862 441.856,284.029 446.5,283C 462.578,277.585 478.912,273.085 495.5,269.5C 491.001,288.494 486.501,307.494 482,326.5C 481.115,329 479.948,331.333 478.5,333.5C 466.349,321.341 454.016,309.674 441.5,298.5 Z"/></g>
<g><path style="opacity:0.004" fill="#090900" d="M 347.5,279.5 C 346.833,278.167 346.833,278.167 347.5,279.5 Z"/></g>
<g><path style="opacity:0.004" fill="#534a00" d="M 441.5,298.5 C 440.833,299.167 440.833,299.167 441.5,298.5 Z"/></g>
<g><path style="opacity:0.938" fill="#c2ac00" d="M 359.5,305.5 C 360.5,305.5 361.5,305.5 362.5,305.5C 374.503,329.505 386.503,353.505 398.5,377.5C 396.011,377.702 393.677,377.202 391.5,376C 366.925,375.507 342.425,374.674 318,373.5C 318.203,371.063 319.037,368.729 320.5,366.5C 333.952,346.397 346.952,326.063 359.5,305.5 Z"/></g>
<g><path style="opacity:1" fill="#dfc600" d="M 118.5,426.5 C 84.1231,407.586 50.1231,387.919 16.5,367.5C 28.2504,359.781 40.2504,352.281 52.5,345C 74.4697,332.047 96.803,319.547 119.5,307.5C 119.833,327.333 120.167,347.167 120.5,367C 120.5,387.178 119.833,407.011 118.5,426.5 Z"/></g>
<g><path style="opacity:0.984" fill="#b7a200" d="M 122.5,307.5 C 134.258,313.408 145.925,319.574 157.5,326C 180.139,339.991 203.139,353.491 226.5,366.5C 227.994,350.055 228.994,333.722 229.5,317.5C 229.833,334.18 229.499,350.847 228.5,367.5C 227.478,367.855 226.811,368.522 226.5,369.5C 191.788,389.573 157.122,409.573 122.5,429.5C 122.5,388.833 122.5,348.167 122.5,307.5 Z"/></g>
<g><path style="opacity:0.994" fill="#a89500" d="M 15.5,367.5 C 15.8333,367.5 16.1667,367.5 16.5,367.5C 50.1231,387.919 84.1231,407.586 118.5,426.5C 119.795,427.488 121.128,428.488 122.5,429.5C 103.341,440.457 84.0078,451.29 64.5,462C 40.8126,465.91 24.6459,456.744 16,434.5C 15.5,412.169 15.3334,389.836 15.5,367.5 Z"/></g>
<g><path style="opacity:0.918" fill="#c2ac00" d="M 368.5,385.5 C 369.993,386.312 370.66,387.645 370.5,389.5C 368.341,409.094 366.841,428.761 366,448.5C 365.586,448.957 365.086,449.291 364.5,449.5C 351.842,440.502 338.842,432.002 325.5,424C 321.033,421.118 317.033,417.784 313.5,414C 315.633,412.084 317.966,410.251 320.5,408.5C 336.472,401.52 352.472,393.853 368.5,385.5 Z"/></g>
<g><path style="opacity:0.017" fill="#fefffe" d="M 324.5,482.5 C 326.288,482.215 327.955,482.548 329.5,483.5C 328.667,483.833 327.833,484.167 327,484.5C 325.624,484.316 324.791,483.649 324.5,482.5 Z"/></g>
</svg>
